<?xml version="1.0" encoding="UTF-8" standalone="no"?>
<svg
   xmlns:dc="http://purl.org/dc/elements/1.1/"
   xmlns:cc="http://creativecommons.org/ns#"
   xmlns:rdf="http://www.w3.org/1999/02/22-rdf-syntax-ns#"
   xmlns:svg="http://www.w3.org/2000/svg"
   xmlns="http://www.w3.org/2000/svg"
   id="svg107"
   version="1.1"
   viewBox="0 0 936.51 707.22"
   height="707.22"
   width="936.51"
   data-name="Layer 1">
  <metadata
     id="metadata111">
    <rdf:RDF>
      <cc:Work
         rdf:about="">
        <dc:format>image/svg+xml</dc:format>
        <dc:type
           rdf:resource="http://purl.org/dc/dcmitype/StillImage" />
        <dc:title>Lighthouse</dc:title>
      </cc:Work>
    </rdf:RDF>
  </metadata>
  <defs
     id="defs9">
    <linearGradient
       gradientUnits="userSpaceOnUse"
       y2="143.43"
       x2="326.5"
       y1="672.4"
       x1="326.5"
       id="c3b6ae59-f5c8-462f-a7a0-99e79fdd0e5d-258">
      <stop
         id="stop2"
         stop-opacity="0.25"
         stop-color="gray"
         offset="0" />
      <stop
         id="stop4"
         stop-opacity="0.12"
         stop-color="gray"
         offset="0.54" />
      <stop
         id="stop6"
         stop-opacity="0.1"
         stop-color="gray"
         offset="1" />
    </linearGradient>
  </defs>
  <title
     id="title11">Lighthouse</title>
  <polygon
     fill="#3ad29f"
     style="fill:#81e6d9;fill-opacity:1"
     id="polygon13"
     points="570.22 408.02 580.26 442.79 590.3 477.56 570.22 477.56 550.14 477.56 560.18 442.79 570.22 408.02" />
  <polygon
     fill="#3ad29f"
     style="fill:#81e6d9;fill-opacity:1"
     id="polygon15"
     points="589.99 403.31 600.02 438.08 610.06 472.86 589.99 472.86 569.91 472.86 579.95 438.08 589.99 403.31" />
  <polygon
     fill="#3ad29f"
     style="fill:#81e6d9;fill-opacity:1"
     id="polygon17"
     points="609.75 403.31 619.79 438.08 629.83 472.86 609.75 472.86 589.67 472.86 599.71 438.08 609.75 403.31" />
  <polygon
     fill="#3ad29f"
     style="fill:#81e6d9;fill-opacity:1"
     id="polygon19"
     points="762.4 424.54 772.44 459.31 782.48 494.09 762.4 494.09 742.32 494.09 752.36 459.31 762.4 424.54" />
  <polygon
     fill="#3ad29f"
     style="fill:#81e6d9;fill-opacity:1"
     id="polygon21"
     points="120.25 390.33 137.44 422.18 154.63 454.03 135.02 458.29 115.4 462.56 117.82 426.44 120.25 390.33" />
  <polygon
     fill="#e0e0e0"
     id="polygon23"
     points="0 707.09 38 528.09 66 491.09 94 443.09 146 412.09 185 390.09 201 438.09 231.74 458.67 251 487.09 281 477.09 319 446.09 348 438.09 389 412.09 427 422.09 466 408.09 492 390.09 517 420.09 531 459.09 534 473.09 570 473.09 610 473.09 635 446.09 674 438.09 712 438.09 738 446.09 784 459.09 886 707.09 0 707.09" />
  <g
     opacity="0.3"
     id="g31">
    <rect
       fill="#e0e0e0"
       id="rect25"
       ry="15.06"
       rx="15.06"
       height="30.12"
       width="154.36"
       y="178.78"
       x="145.62" />
    <rect
       fill="#e0e0e0"
       id="rect27"
       ry="15.06"
       rx="15.06"
       height="30.12"
       width="154.36"
       y="208.9"
       x="107.97" />
    <rect
       fill="#e0e0e0"
       id="rect29"
       ry="15.06"
       rx="15.06"
       height="30.12"
       width="154.36"
       y="239.02"
       x="145.62" />
  </g>
  <circle
     fill="#ffffa5"
     style="fill:#faf089;fill-opacity:1"
     id="circle47"
     r="46.12"
     cy="219.2"
     cx="327.07" />
  <path
     fill="#4d8af0"
     transform="translate(-132.47 -96.39)"
     style="fill:#63b3ed;fill-opacity:1"
     id="path55"
     d="M1015.8,803.61H132.93s57-131,143.4-154.18a98.17,98.17,0,0,1,38.27-2.71c20.84,2.65,39.69,13.58,53.08,29.77C396,710.73,482.73,785.34,656.26,700.08c0,0,62.12-62.12,161.89,11.29a191.58,191.58,0,0,0,19,8.2c30.61,11.57,91.84,27.69,135.37-6.32C1032.75,666.19,1015.8,803.61,1015.8,803.61Z" />
  <g
     id="g63"
     opacity="0.3">
    <rect
       id="rect57"
       fill="#e0e0e0"
       ry="15.06"
       rx="15.06"
       height="30.12"
       width="154.36"
       y="39.78"
       x="557.62" />
    <rect
       id="rect59"
       fill="#e0e0e0"
       ry="15.06"
       rx="15.06"
       height="30.12"
       width="154.36"
       y="69.9"
       x="519.97" />
    <rect
       id="rect61"
       fill="#e0e0e0"
       ry="15.06"
       rx="15.06"
       height="30.12"
       width="154.36"
       y="100.02"
       x="557.62" />
  </g>
  <g
     opacity="0.3"
     id="g71">
    <rect
       fill="#e0e0e0"
       id="rect65"
       ry="15.06"
       rx="15.06"
       height="30.12"
       width="154.36"
       y="249.78"
       x="685.62" />
    <rect
       fill="#e0e0e0"
       id="rect67"
       ry="15.06"
       rx="15.06"
       height="30.12"
       width="154.36"
       y="279.9"
       x="647.97" />
    <rect
       fill="#e0e0e0"
       id="rect69"
       ry="15.06"
       rx="15.06"
       height="30.12"
       width="154.36"
       y="310.02"
       x="685.62" />
  </g>
  <g
     opacity="0.3"
     id="g77">
    <path
       fill="#030b44"
       id="path73"
       transform="translate(-132.47 -96.39)"
       d="M767.32,355.59h32.94S787.85,377.55,767.32,355.59Z" />
    <path
       fill="#030b44"
       id="path75"
       transform="translate(-132.47 -96.39)"
       d="M769.31,364.93l21.6-24.87S799.35,363.83,769.31,364.93Z" />
  </g>
  <g
     opacity="0.3"
     id="g83">
    <path
       fill="#030b44"
       id="path79"
       transform="translate(-132.47 -96.39)"
       d="M649.67,424.3h32.94S670.2,446.26,649.67,424.3Z" />
    <path
       fill="#030b44"
       id="path81"
       transform="translate(-132.47 -96.39)"
       d="M651.66,433.64l21.59-24.87S681.7,432.54,651.66,433.64Z" />
  </g>
  <g
     id="g89"
     opacity="0.3">
    <path
       id="path85"
       fill="#030b44"
       transform="translate(-132.47 -96.39)"
       d="M607.06,166.4h35.33S629.08,190,607.06,166.4Z" />
    <path
       id="path87"
       fill="#030b44"
       transform="translate(-132.47 -96.39)"
       d="M609.19,176.43l23.17-26.69S641.42,175.24,609.19,176.43Z" />
  </g>
  <path
     transform="translate(-132.47 -96.39)"
     fill="#4d8af0"
     id="path99"
     d="M1067.53,556.56a1.5,1.5,0,0,0,0-3,1.5,1.5,0,0,0,0,3Z" />
</svg>
